<?xml version="1.0" standalone="no"?>
<!DOCTYPE svg PUBLIC "-//W3C//DTD SVG 20010904//EN"
 "http://www.w3.org/TR/2001/REC-SVG-20010904/DTD/svg10.dtd">
<svg version="1.0" xmlns="http://www.w3.org/2000/svg"
 width="506.000000pt" height="493.000000pt" viewBox="0 0 506.000000 493.000000"
 preserveAspectRatio="xMidYMid meet">

<g transform="translate(0.000000,493.000000) scale(0.100000,-0.100000)"
fill="#023491" stroke="none">
<path d="M2252 4840 c-510 -54 -1013 -294 -1381 -659 -135 -134 -156 -158
-237 -266 -178 -237 -328 -550 -398 -833 -122 -490 -83 -1020 109 -1478 42
-100 128 -270 165 -324 9 -14 36 -54 60 -90 117 -174 322 -394 490 -526 241
-189 531 -335 829 -419 395 -110 848 -110 1243 1 400 111 753 320 1045 616
344 349 555 756 645 1248 20 111 23 156 23 400 -1 287 -5 333 -56 550 -67 286
-221 613 -404 855 -162 215 -382 421 -600 561 -97 62 -114 72 -250 138 -250
122 -512 198 -776 226 -107 11 -398 11 -507 0z m676 -823 c23 -23 42 -47 42
-52 0 -5 -48 -55 -107 -112 l-108 -103 108 -102 c59 -57 107 -106 107 -110 0
-14 -88 -100 -98 -97 -6 2 -81 73 -168 158 l-156 155 158 152 c88 84 164 153
169 154 6 0 30 -19 53 -43z m-648 -267 l0 -70 -230 0 -230 0 0 70 0 70 230 0
230 0 0 -70z m-580 -227 c0 -27 9 -83 20 -126 81 -321 361 -541 690 -541 278
0 525 156 643 407 39 80 67 192 67 262 l0 46 83 -3 82 -3 -3 -50 c-18 -296
-181 -559 -437 -706 -254 -147 -561 -157 -820 -27 -186 93 -335 250 -416 438
-40 92 -69 219 -69 301 l0 49 80 0 80 0 0 -47z m1973 -674 c8 -14 -18 -114
-59 -223 -2 -6 9 -19 26 -28 40 -23 88 -100 96 -155 4 -27 16 -54 31 -69 27
-27 25 -57 -8 -86 -14 -12 -24 -44 -36 -115 -16 -100 -26 -125 -42 -107 -5 5
-3 42 5 89 22 136 31 125 -91 125 -84 0 -105 -3 -105 -14 0 -8 -3 -21 -6 -30
-9 -23 12 -20 85 9 48 20 66 23 81 15 24 -13 24 -14 5 -113 -8 -43 -15 -81
-15 -83 0 -3 -68 -3 -152 -2 l-152 3 -14 79 c-15 93 -8 109 47 104 27 -2 36 1
39 15 3 15 -5 17 -62 17 -36 0 -66 -3 -66 -7 0 -5 7 -51 15 -103 9 -63 11 -98
4 -105 -7 -7 -13 -5 -18 4 -9 14 -31 144 -31 180 0 10 -11 26 -25 35 -31 21
-35 78 -7 98 11 7 22 31 26 53 23 119 116 202 234 209 l57 3 35 99 c19 55 39
105 43 112 11 17 47 11 60 -9z m-1888 -410 l26 -32 34 33 c29 28 37 31 50 20
22 -19 19 -26 -32 -81 l-46 -50 -49 48 c-50 51 -55 62 -36 81 18 18 23 15 53
-19z m770 20 c22 -6 57 -28 79 -51 l40 -39 -30 -18 -29 -19 -33 32 c-41 38
-106 43 -142 11 -28 -25 -59 -91 -60 -126 0 -71 65 -149 124 -149 32 0 77 26
102 59 10 13 17 13 38 3 34 -15 33 -33 -6 -72 -145 -144 -363 0 -319 211 14
68 68 134 126 154 49 17 60 18 110 4z m225 -75 c0 -50 2 -55 18 -49 32 15 80
17 102 5 36 -19 50 -70 50 -180 l0 -100 -35 0 -35 0 0 94 c0 52 -3 101 -6 110
-9 24 -32 19 -65 -13 -27 -28 -29 -34 -29 -110 l0 -81 -35 0 -35 0 0 190 0
190 35 0 35 0 0 -56z m-1380 -34 l0 -80 80 0 80 0 0 80 0 80 40 0 40 0 0 -195
0 -195 -40 0 -40 0 0 80 0 80 -80 0 -80 0 0 -79 c0 -85 -5 -92 -57 -83 -23 4
-23 5 -23 198 l0 194 40 0 40 0 0 -80z m1720 20 l0 -30 -70 0 c-73 0 -90 10
-76 45 4 11 22 15 76 15 l70 0 0 -30z m-1249 -60 c13 -7 19 -7 19 0 0 5 15 10
34 10 l34 0 4 -117 c3 -89 1 -124 -10 -142 -12 -21 -16 -22 -29 -8 -13 13 -19
13 -42 1 -14 -8 -47 -14 -73 -14 -39 0 -54 6 -83 31 -100 88 -43 248 88 249
21 0 47 -5 58 -10z m337 -10 c90 -55 95 -163 10 -235 -29 -24 -38 -27 -91 -23
-54 4 -63 8 -93 41 -30 32 -34 44 -34 89 0 117 112 186 208 128z m872 -110 l0
-130 -35 0 -35 0 0 130 0 130 35 0 35 0 0 -130z m-110 -642 c0 -13 -11 -41
-25 -63 -31 -50 -31 -53 0 -47 38 7 40 -19 6 -89 -18 -37 -27 -67 -22 -72 12
-12 48 9 56 33 3 11 11 20 16 20 16 0 10 -17 -17 -50 -21 -25 -33 -30 -58 -28
-26 2 -32 8 -34 31 -2 16 7 49 22 78 15 27 22 49 17 49 -20 0 -62 -46 -90 -99
-26 -49 -33 -55 -67 -58 -27 -3 -42 1 -50 12 -10 14 -13 14 -24 0 -21 -25 -69
-19 -82 11 -11 23 -9 33 15 75 15 27 24 49 21 49 -23 0 -93 -55 -107 -84 -18
-39 -57 -69 -83 -64 -9 2 -26 15 -37 29 -17 24 -18 31 -7 63 17 52 57 96 87
96 25 0 62 -34 63 -59 0 -11 3 -11 14 -1 8 6 12 18 9 26 -7 19 14 61 35 69 11
4 13 -1 10 -25 -4 -30 13 -43 27 -20 10 16 32 12 39 -7 4 -10 -5 -32 -24 -59
-34 -48 -41 -97 -12 -92 10 2 34 36 58 85 34 65 39 83 27 87 -18 7 -7 26 15
26 10 0 26 14 36 30 19 33 41 31 32 -3 -3 -13 1 -25 12 -33 16 -12 15 -13 -5
-14 -23 0 -47 -28 -82 -97 -28 -57 -28 -85 2 -81 16 2 31 21 55 68 44 85 135
230 144 230 5 0 8 -10 8 -22z m-982 -54 c-21 -30 -38 -43 -38 -29 0 9 31 68
44 84 23 29 18 -20 -6 -55z m-215 -62 c-21 -37 -51 -93 -67 -125 -22 -44 -31
-55 -38 -44 -4 9 -2 33 7 58 18 51 90 186 114 213 15 18 16 17 19 -8 2 -17
-11 -51 -35 -94z m135 31 c15 -11 15 -12 -4 -13 -12 0 -26 -6 -32 -12 -24 -29
-72 -128 -72 -147 0 -32 35 -26 64 12 19 24 26 28 26 14 0 -26 -45 -67 -74
-67 -26 0 -46 25 -46 57 0 10 13 44 28 75 23 46 26 58 15 62 -18 7 -7 26 15
26 10 0 27 15 37 33 l20 32 3 -30 c2 -16 11 -35 20 -42z m1413 7 c17 0 9 -15
-13 -25 -26 -11 -87 -119 -88 -153 0 -35 39 -25 67 17 18 26 23 30 23 14 0
-25 -50 -73 -77 -73 -11 0 -26 7 -33 15 -10 12 -15 12 -35 -1 -36 -24 -69 -15
-73 20 -4 28 54 156 70 156 16 0 7 -50 -17 -98 -28 -57 -31 -72 -12 -72 20 0
41 27 77 99 22 45 28 67 21 74 -17 17 -13 27 8 27 11 0 30 15 43 33 l23 32 3
-32 c2 -18 7 -33 13 -33z m-114 4 c8 -21 -13 -42 -28 -27 -13 13 -5 43 11 43
6 0 13 -7 17 -16z m-1162 -105 l0 -91 28 33 c20 25 27 29 27 15 0 -9 -13 -31
-29 -47 -36 -36 -90 -40 -121 -9 -25 25 -26 68 -2 77 21 9 49 41 58 68 7 23
24 45 33 45 3 0 6 -41 6 -91z m280 -17 c-39 -76 -41 -82 -22 -82 23 0 56 45
72 96 16 53 55 103 55 70 0 -27 -39 -101 -76 -145 -37 -43 -63 -51 -84 -26
-11 13 -15 13 -33 0 -29 -20 -44 -19 -57 5 -8 15 -5 32 12 72 33 76 55 105 69
91 9 -9 4 -27 -20 -72 -17 -33 -31 -67 -31 -76 0 -28 20 -15 48 30 80 134 84
139 93 122 7 -12 0 -35 -26 -85z m1029 -71 c8 -12 -21 -34 -33 -27 -6 4 -8 13
-4 21 6 17 29 20 37 6z m-424 -186 c35 -9 74 -24 87 -32 23 -15 23 -15 4 -42
-23 -32 -54 -36 -130 -16 -120 30 -427 43 -485 19 -14 -5 -17 -4 -12 4 10 17
-3 15 -20 -3 -9 -8 -20 -15 -27 -15 -6 0 -2 6 8 14 18 13 18 14 -8 9 -19 -4
-26 -10 -23 -19 3 -8 -1 -14 -9 -14 -8 0 -15 7 -15 15 0 13 55 35 89 35 11 0
10 3 -3 13 -14 10 -15 14 -5 15 8 1 55 8 104 17 50 8 122 18 160 21 39 3 71 7
72 8 7 6 158 -14 213 -29z m-680 -95 c0 -5 -9 -10 -21 -10 -11 0 -17 5 -14 10
3 6 13 10 21 10 8 0 14 -4 14 -10z m-94 -19 c-6 -9 -66 -33 -66 -26 0 6 52 34
63 35 5 0 6 -4 3 -9z"/>
<path d="M3598 2727 c-16 -45 -28 -87 -28 -92 0 -20 21 22 39 80 11 33 22 68
26 78 4 9 3 17 -1 17 -5 0 -21 -38 -36 -83z"/>
<path d="M3405 2596 c-61 -27 -108 -86 -123 -154 l-10 -43 91 3 91 3 33 95
c18 52 33 98 33 103 0 12 -83 7 -115 -7z"/>
<path d="M3526 2513 c-16 -49 -31 -95 -34 -103 -3 -10 -2 -12 5 -5 6 6 23 46
38 90 14 44 29 86 32 93 2 6 1 12 -4 12 -5 0 -22 -39 -37 -87z"/>
<path d="M3595 2569 c-2 -8 -16 -46 -30 -85 -14 -39 -25 -74 -25 -78 0 -3 39
-6 86 -6 l86 0 -7 33 c-14 68 -97 171 -110 136z"/>
<path d="M3293 2353 c26 -2 68 -2 95 0 26 2 4 3 -48 3 -52 0 -74 -1 -47 -3z"/>
<path d="M3293 2313 c26 -2 67 -2 90 0 23 2 2 3 -48 3 -49 0 -68 -1 -42 -3z"/>
<path d="M3568 2313 c34 -2 88 -2 120 0 31 2 3 3 -63 3 -66 0 -92 -1 -57 -3z"/>
<path d="M3441 2262 c-13 -25 -14 -32 -2 -32 9 0 23 41 16 48 -2 2 -8 -5 -14
-16z"/>
<path d="M3620 2214 c0 -8 5 -12 10 -9 6 3 10 10 10 16 0 5 -4 9 -10 9 -5 0
-10 -7 -10 -16z"/>
<path d="M3606 2139 c-8 -40 -8 -64 0 -56 10 10 22 87 14 87 -4 0 -10 -14 -14
-31z"/>
<path d="M1765 2225 c-30 -30 -31 -54 -4 -89 29 -36 80 -36 109 1 55 70 -42
151 -105 88z"/>
<path d="M2102 2243 c-7 -3 -19 -18 -27 -33 -26 -50 8 -100 67 -100 34 0 57
20 64 57 10 53 -50 98 -104 76z"/>
<path d="M2525 1400 c3 -5 8 -10 11 -10 2 0 4 5 4 10 0 6 -5 10 -11 10 -5 0
-7 -4 -4 -10z"/>
<path d="M2482 1388 c-33 -41 -48 -118 -22 -118 12 0 57 49 63 69 2 10 -3 28
-12 40 -15 19 -19 20 -29 9z"/>
<path d="M1982 1343 c-18 -26 -21 -36 -12 -53 23 -42 43 -17 38 46 l-3 39 -23
-32z"/>
<path d="M2448 1063 c6 -2 18 -2 25 0 6 3 1 5 -13 5 -14 0 -19 -2 -12 -5z"/>
</g>
</svg>
